<!-- Created with Inkscape (http://www.inkscape.org/) -->
<svg xmlns:rdf="http://www.w3.org/1999/02/22-rdf-syntax-ns#" xmlns="http://www.w3.org/2000/svg" height="1000" width="1000" version="1.1" xmlns:cc="http://creativecommons.org/ns#" xmlns:dc="http://purl.org/dc/elements/1.1/">
 <defs></defs>
 <metadata>
  <rdf:RDF>
   <cc:Work rdf:about="">
    <dc:format>image/svg+xml</dc:format>
    <dc:type rdf:resource="http://purl.org/dc/dcmitype/StillImage"/>
    <dc:title/>
   </cc:Work>
  </rdf:RDF>
 </metadata>
 <g transform="translate(-104.7039,466.74663)">
  <path d="m338.81-357.87c-39.513,25.709-74.988,57.469-105.92,93.064-32.514,37.412-60.058,79.192-81.267,124.02-21.478,45.39-36.407,94.024-42.553,143.9-0.00001,0.0000533-0.00002,0.0001066-0.00002,0.0001599-6.2761,50.932-3.1131,103.12,10.265,152.7,0.00001,0.00005,0.00002,0.0001,0.00004,0.00015,16.534,61.286,43.351,120.01,80.72,171.4,33.892,46.601,76.336,86.955,124.55,118.57,46.573,30.54,98.361,52.99,152.3,66.897,0.00002,0.00001,0.00005,0.00001,0.00008,0.00002,53.394,13.766,108.9,19.247,163.99,16.442,0.00003-0.00001,0.00005-0.00001,0.00008-0.00001,54.454-2.771,108.56-13.645,159.66-32.791,0.00003-0.00001,0.00005-0.00002,0.00008-0.00003,50.494-18.918,98.048-46.026,139.3-80.859,42.008-35.479,77.218-79.039,102.78-127.77,13.553-25.84,24.431-53.066,32.614-81.069v-0.00016c8.7945-30.097,14.487-61.067,17.393-92.269v-0.00016c2.0153-21.669,1.332-43.52-1.3532-65.057-2.8764-23.083-8.0235-45.834-14.812-68.034-14.856-48.572-37.328-94.581-64.299-137.51-28.849-45.932-63.002-88.501-101.26-126.95-38.305-38.497-80.841-72.954-127.27-101.3-22.433-13.695-45.793-25.934-70.001-36.279-0.00004-0.00002-0.00009-0.00004-0.00014-0.00006-23.411-10.005-47.631-18.229-72.454-24.132-24.085-5.7275-48.747-9.2424-73.553-10.02-24.522-0.7681-49.161,1.1771-73.245,6.0844-0.00005,0.00001-0.0001,0.00002-0.00016,0.00003-24.698,5.0358-48.746,13.195-71.442,24.162-24.435,11.812-47.25,26.817-68.092,44.115-23.499,19.506-44.515,41.846-63.249,65.849-21.8,27.929-40.586,58.082-57.019,89.361l8.8592,4.6384c16.118-30.891,34.491-60.608,55.793-88.058,18.304-23.586,38.774-45.499,61.624-64.572,20.258-16.911,42.397-31.581,66.074-43.107,21.984-10.707,45.3-18.7,69.245-23.659,0.00005-0.00001,0.0001-0.00002,0.00015-0.00003,23.353-4.8388,47.309-6.8019,71.194-6.1318,24.167,0.67705,48.269,4.0403,71.868,9.5695,24.325,5.6998,48.121,13.701,71.178,23.466,0.00005,0.00003,0.0001,0.00005,0.00014,0.00007,23.842,10.098,46.894,22.088,69.073,35.53,45.912,27.824,88.073,61.768,126.12,99.761,38,37.95,71.952,79.993,100.65,125.38,0,0.00005,0.0001,0.00009,0.0001,0.00014,26.825,42.433,49.193,87.83,63.983,135.7,6.7584,21.873,11.899,44.247,14.79,66.911,2.6959,21.144,3.4396,42.545,1.5297,63.716-2.7793,30.851-8.3047,61.466-16.898,91.208v0.00016c-7.9945,27.672-18.647,54.584-31.946,80.128-25.071,48.164-59.721,91.31-101.13,126.51-40.664,34.567-87.665,61.553-137.65,80.461-0.00005,0.00002-0.0001,0.00004-0.00015,0.00006-50.585,19.136-104.23,30.093-158.28,33.014-0.00006,0-0.00011,0.00001-0.00016,0.00001-54.678,2.9537-109.83-2.3145-162.92-15.826-0.00005-0.00001-0.0001-0.00002-0.00015-0.00003-53.628-13.65-105.16-35.793-151.54-66.003-48.007-31.269-90.345-71.264-124.2-117.52-37.339-51.003-64.233-109.41-80.907-170.44-0.00002-0.00005-0.00003-0.00011-0.00005-0.00016-13.43-49.3-16.74-101.27-10.65-152.05,0.00001-0.0000531,0.00002-0.0001063,0.00002-0.0001594,5.9697-49.734,20.711-98.301,42.009-143.68,21.033-44.813,48.412-86.631,80.784-124.11,30.8-35.662,66.158-67.52,105.59-93.352z" fill-rule="evenodd" fill="#000"/>
  <path stroke-linejoin="miter" d="M233.73-122.45c55.39-50.6,114.47-97.29,176.85-132.8,16.93-9.64,181.2-136.9,195.14-124.99,106.29,90.78,161.18,308.04,250.02,421.84,1.5,1.926,69.38,134.16,60.98,140.62-150.28,115.51-455.39,285.42-457.36,281.22-29.54-63.08-50.89-138.78-79.27-203.11-51.95-117.73-145.23-376.98-146.36-382.77z" stroke="#000" stroke-linecap="butt" stroke-width="4.00313902px" fill="#c8b7b7"/>
  <path stroke-linejoin="miter" d="m279-109.93c5.109,22.999,23.973,102.94,37.184,107.17,16.973,5.4358,53.276-22.749,69.719-29.771,26.97-11.516,55.184-22.322,81.339-35.725,23.408-11.995,42.606-33.408,62.747-50.61,13.583-11.6,30.391-13.237,44.156-23.816,10.614-8.1578,22.792-16.087,34.86-23.816,3.4234-2.1928,11.557-3.9157,13.944-5.9541,8.4917-7.252-2.4918-4.3581,4.648-8.9312,6.0752-3.8912,34.86-23.816,34.86-32.748,0-8.1368,2.6278-26.015,0-32.748-0.77466-1.9847-3.4231-1.408-4.648-2.9771-5.264-6.7433-9.4862-18.228-13.944-26.793-1.4279-2.7436-6.7199-2.3311-6.972-2.977-0.69286-1.7752,0.69289-4.179,0-5.9541-0.21415-0.54951-6.1471-2.4488-6.9719-2.977-7.382-4.7282-12.964-19.584-18.592-26.794-4.3918-5.6259-2.6982-31.019-13.944-23.816-6.9592,4.4574-11.201,14.349-16.268,20.839-3.3708,4.318-7.8122,2.2958-11.62,5.9541-6.046,5.8087-8.7346,11.189-13.944,17.862-4.5717,5.8565-13.394,6.914-18.592,11.908-20.766,19.952-46.99,33.958-72.043,44.656-9.4558,4.0376-17.879,15.298-27.888,17.862-2.2789,0.58384-4.8142-1.1056-6.972,0-5.4974,2.8169-9.5888,9.7693-16.268,11.908-16.297,5.2191-32.15,20.51-46.48,32.748-9.357,7.9909-22.757,9.5114-32.536,17.862-8.4179,7.189-14.653,15.794-20.916,23.816-2.4029,3.0781-15.106,7.4427-18.592,8.9311-6.3219,2.6995-10.723,10.15-16.268,14.885z" stroke="#000" stroke-linecap="butt" stroke-width="4.00313902px" fill="#008080"/>
  <path stroke-linejoin="miter" d="m353.37,41.901c-4.8565,28.756,12.205,40.199,20.916,62.518,2.7732,7.105,8.9406,24.622,11.62,29.77,0.0493,0.0953,11.611,11.908,9.2959,11.908-3.4644,0,6.8462-2.816,9.2959-5.9541,5.4651-7.0009,12.06-15.819,18.592-20.839,3.7597-2.8897,16.009-5.623,18.592-8.9311,8.24-10.567-31.18-86.708-41.84-107.18-0.43-0.8337-43.76,36.609-46.48,38.701z" stroke="#000" stroke-linecap="butt" stroke-width="4.00313902px" fill="#93a7ac"/>
  <path stroke-linejoin="miter" d="m444.01-17.64c13.917,30.287,23.883,63.342,41.832,86.334,2.4383,3.1235,3.3393,13.209,6.9719,17.862,3.3823,4.3328,28.483-17.872,32.536-20.839,6.4271-4.7047,20.896-8.9054,25.564-14.885,6.0053-7.6929-15.569-42.865-20.916-56.564-18.25-46.756-27.845-35.758-62.747-8.9311-4.2012,3.229-9.233,7.6783-13.944,5.9541-3.7243-1.3631-6.0732-11.683-9.296-8.9312-3.8673,3.3027,3.2866,13.652,0,17.862" stroke="#000" stroke-linecap="butt" stroke-width="4.00313902px" fill="#6f8a91"/>
  <path stroke-linejoin="miter" d="m548.59-62.295c7.0553,22.088,13.31,45.143,23.24,65.495,5.9194,12.133,17.295,22.155,23.24,29.771,1.8499,2.3697,8.6001-2.6205,9.296-2.9771,11.608-5.9482,40.746-5.5642,37.184-23.816-3.3805-17.322-13.831-32.506-20.916-47.633-1.9757-4.218-0.68266-12.082-2.324-14.885-17.859-30.504-29.718-54.22-53.452-23.816-10.632,13.619-5.9833-15.074-16.268,17.862z" stroke="#000" stroke-linecap="butt" stroke-width="4.00313902px" fill="#93a7ac"/>
  <path stroke-linejoin="miter" d="m409.15,166.94c0.97013,29.361,16.687,57.28,30.212,80.38,22.289,38.071,12.068,34.074,39.508,5.9541,4.9542-5.0771,39.972-30.959,41.832-35.725,3.7615-9.637-42.412-83.357-51.128-83.357-4.8374,0-12.452,17.348-16.268,20.839-14.254,13.043-27.689,22.739-44.156,29.771" stroke="#000" stroke-linecap="butt" stroke-width="4.00313902px" fill="#93a7ac"/>
  <path stroke-linejoin="miter" d="m518.37,119.3c1.9476,34.335,16.02,65.019,30.212,92.289,2.1397,4.1115,0.81485,15.407,4.648,17.862,6.6964,4.2891,22.474-17.372,27.888-20.839,3.3848-2.1679,21.523-9.7095,23.24-11.908,1.0955-1.4034-1.0956-4.5507,0-5.9541,1.0955-1.4034,3.5524,1.4034,4.6479,0,3.3049-4.2336-21.708-49.942-23.24-53.587-6.3915-15.206-19.085-31.665-23.24-47.633-4.257-16.36-5.9484,0.11852-16.268,8.9312-1.9857,1.6958-10.239,1.2079-11.62,2.977-3.3252,4.2597-10.393,12.218-16.268,17.862z" stroke="#000" stroke-linecap="butt" stroke-width="4.00313902px" fill="#6f8a91"/>
  <path stroke-linejoin="miter" d="m611.33,77.626c6.3516,7.5876,19.226,62.518,25.564,62.518,11.614,0,44.851-29.922,41.832-35.725-7.154-13.747-12.584-32.204-20.916-44.656-2.512-3.7542-20.916-25.07-20.916-29.77,0-2.2864-2.7028,9.4164-6.9719,14.885-6.0052,7.6927-16.535,12.251-20.916,17.862" stroke="#000" stroke-linecap="butt" stroke-width="4.00313902px" fill="#93a7ac"/>
  <path stroke-linejoin="miter" d="m641.55-124.81c12.767,42.659,35.114,77.667,53.452,116.11,9.98,20.92,17.879,44.981,27.888,65.495,1.7419,3.5702,5.3413,5.2757,6.9719,8.9312,7.8192,17.529,9.3116,32.74,20.916,26.793,7.5854-3.8868,59.792-25.433,55.776-35.725-15.21-38.968-44.815-77.449-65.071-113.13-10.774-18.978-21.99-41.455-30.212-62.518-0.90759-2.3252-2.6174-12.284-4.648-14.885-11.216-14.368-6.432,4.3602-13.944-14.885-4.3383-11.115-26.857,18.415-32.536,20.839-5.925,2.53-13.395-1.4608-18.592,2.9771-3.2866,2.8068-1.5493,9.9235-2.3239,14.885" stroke="#000" stroke-linecap="butt" stroke-width="4.00313902px" fill="#008000"/>
  <path stroke-linejoin="miter" d="m483.51,300.9c9.9246,38.141-2.2965,0.0501,13.944,29.77,1.8332,3.3548,21.435,65.495,27.888,65.495,1.0956,0,1.5493-3.9693,2.324-2.977,0.51534,0.66016-15.206,16.502,2.3239-5.9541,11.367-14.561,26.789-25.034,37.184-41.679,8.9436-14.321,9.0432-25.143,20.916-32.748,2.8162-1.8038-8.7081-13.982-9.2959-14.885-4.5128-6.937-27.739-45.712-37.184-41.679-6.7503,2.8824-3.2427,3.1154-9.2959,8.9311-6.3542,6.1049-14.59,6.506-20.916,11.908-13.837,11.817-11.615,15.478-27.888,23.816z" stroke="#000" stroke-linecap="butt" stroke-width="4.00313902px" fill="#93a7ac"/>
  <path stroke-linejoin="miter" d="m574.15,250.29c19.441,15.815,26.814,46.258,41.832,65.495,1.0956,1.4034-1.0955,4.5507,0,5.9541,1.9956,2.5564,11.621-0.42542,18.592-2.977,11.479-4.2012,21.812-13.056,30.212-23.816,4.9346-6.3213-29.055-61.777-30.212-62.518-5.7423-3.678-33.807-1.3484-37.184,2.9771-0.77466,0.99234-1.5493,7.9388-2.324,8.9311-2.5714,3.294-6.484,2.3521-11.62,8.9312" stroke="#000" stroke-linecap="butt" stroke-width="4.00313902px" fill="#6f8a91"/>
  <path stroke-linejoin="miter" d="m660.14,199.69c19.612,13.608,41.924,35.843,55.776,53.587,1.2768,1.6356,17.12,0.94299,18.592,0,4.8994-3.1381,6.9748-11.166,11.62-14.885,9.8568-7.8916,22.063-12.112,32.536-17.862,16.074-8.8247,28.587-21.586,41.832-35.725,4.5604-4.8682,41.832-38.508,41.832-44.656,0-5.0459-9.4926-9.183-11.62-11.908-9.7455-12.484-13.87-35.748-32.536-29.771-5.0414,1.6145-9.1952,6.2275-13.944,8.9311-23.846,13.576-46.836,28.37-69.719,44.656-24.362,17.338-47.524,40.756-74.367,47.633z" stroke="#000" stroke-linecap="butt" stroke-width="4.00313902px" fill="#a05a2c"/>
  <text style="letter-spacing:0px;word-spacing:0px;" font-weight="normal" xml:space="preserve" transform="matrix(0.80611981,-0.48820823,0.39244074,1.0028375,0,0)" font-size="83.52335358px" font-style="normal" y="119.4863" x="340.61819" font-family="Sans" line-height="125%" fill="#000000"><tspan font-weight="normal" font-style="normal" font-stretch="normal" font-variant="normal" y="119.4863" x="340.61819" font-family="Andale Mono" fill="#ddff55">01100001</tspan></text>
  <path fill="#cd87de" d="M572.96,519.41c-186.66-12.67-343.48-118.57-419.09-283.01-44.78-97.39-54.823-190.38-30.99-286.96,13.784-55.868,42.072-117.31,78.206-169.87,13.108-19.066,55.904-69.34,57.522-67.574,0.42719,0.46628-3.1067,6.9427-7.8531,14.392-14.664,23.015-25.036,42.739-23.365,44.43,0.87811,0.88816,6.5899,4.6525,12.693,8.3653l11.096,6.7505,4.7291-8.1117c20.788-35.657,28.629-48.414,38.92-63.32,16.758-24.273,59.493-69.867,81.297-86.736,38.588-29.853,84.66-50.696,131.26-59.38,20.28-3.7793,28.995-4.2544,60.707-3.3094,36.89,1.0993,53.313,3.4327,84.775,12.045,130.6,35.752,264.8,143.27,350.57,280.86,56.509,90.655,83.953,183.5,76.388,258.43-10.505,104.05-49.636,191.09-117.69,261.77-67.726,70.344-157.55,116.37-263.24,134.87-21.299,3.7292-84.878,8.9984-98.648,8.1756-2.6797-0.16002-14.958-0.97607-27.284-1.8132zm-62.7-78.54c122-66.01,279.98-163.6,374.97-231.64,29.91-21.43,34.57-25.5,34.6-30.24,0.08-16.1-48.48-119.83-72.11-154.05-27.1-39.246-42.89-68.575-91.56-170.16-50.19-104.75-66.28-134.72-94.07-175.13-16.044-23.333-50.287-61.453-56.81-63.239-10.92-2.9912-47.955,19.562-140.49,85.553-31.084,22.169-66.732,46.68-79.217,54.47-47.305,29.515-111.85,79.113-154.15,118.46-3.7718,3.5081,89.012,250.93,138.83,370.19,10.994,26.322,29.572,73.701,41.285,105.29,29.637,79.919,44.727,115.92,48.588,115.92,1.7195,0,24.279-11.443,50.132-25.429z"/>
 </g>
</svg>
